PathFileType  4	(X/Y/Z) C:\Users\antoi\Documents\MyRepositories\mobilecap\ResultsAnalysis
DataRate	CameraRate	NumFrames	NumMarkers	Units	OrigDataRate	OrigDataStartFrame	OrigNumFrames
100.0	100.0	4	51	mm	100.0	1183	1351
Frame#	Time	r_knee			r_shank_antsup			r_ankle			r_calc			r_5meta			r_toe			L_knee			L_shank_antsup			L_ankle			L_calc			L_5meta			L_toe			r_sh2			r_sh3			r_sh4			L_sh2			L_sh3			r_thigh1			r_thigh2			r_thigh3			r_thigh4			r_thigh5			L_thigh1			L_thigh2			L_thigh3			L_thigh4			r.ASIS			r.PSIS			L.ASIS			L.PSIS			C7			R_Shoulder			L_Shoulder			R_Sternum			L_Sternum			R_humerus			R_elbow_med			R_elbow_lat			R_forearm			R_wrist_radius			R_wrist_ulna			L_humerus			L_elbow_med			L_elbow_lat			L_forearm			L_wrist_radius			L_wrist_ulna			R_HJC			L_HJC			R_HJC_reg			L_HJC_reg			
		X1	Y1	Z1	X2	Y2	Z2	X3	Y3	Z3	X4	Y4	Z4	X5	Y5	Z5	X6	Y6	Z6	X7	Y7	Z7	X8	Y8	Z8	X9	Y9	Z9	X10	Y10	Z10	X11	Y11	Z11	X12	Y12	Z12	X13	Y13	Z13	X14	Y14	Z14	X15	Y15	Z15	X16	Y16	Z16	X17	Y17	Z17	X18	Y18	Z18	X19	Y19	Z19	X20	Y20	Z20	X21	Y21	Z21	X22	Y22	Z22	X23	Y23	Z23	X24	Y24	Z24	X25	Y25	Z25	X26	Y26	Z26	X27	Y27	Z27	X28	Y28	Z28	X29	Y29	Z29	X30	Y30	Z30	X31	Y31	Z31	X32	Y32	Z32	X33	Y33	Z33	X34	Y34	Z34	X35	Y35	Z35	X36	Y36	Z36	X37	Y37	Z37	X38	Y38	Z38	X39	Y39	Z39	X40	Y40	Z40	X41	Y41	Z41	X42	Y42	Z42	X43	Y43	Z43	X44	Y44	Z44	X45	Y45	Z45	X46	Y46	Z46	X47	Y47	Z47	X48	Y48	Z48	X49	Y49	Z49	X50	Y50	Z50	X51	Y51	Z51	

1183	11.82000000	6.14075	401.45859	-340.19092	9.16344	298.54689	-370.04786	-272.10963	120.26053	-439.41399	-361.63277	78.84240	-501.76189	-187.22403	47.85556	-377.33630	-116.60367	69.17519	-430.73199	15.04915	479.18677	-798.55742	-10.16970	411.27544	-828.69806	-247.77712	166.50459	-805.87613	-334.09500	127.99585	-743.58251	-182.23960	70.77515	-878.67088	-105.33477	75.69738	-832.36116	-77.22803	224.36867	-368.89167	-29.70536	343.21124	-326.00919	-127.20191	283.08460	-336.59532	-75.54868	465.28127	-797.95688	-146.27124	364.63588	-808.63022	-197.71371	646.04646	-323.19142	-104.84790	591.48633	-328.30166	-112.65236	529.30728	-298.60963	-253.55764	548.57985	-327.13858	-151.63569	495.44419	-320.90828	-174.52055	678.87570	-721.33114	-52.10025	615.78139	-746.96648	-228.04175	590.99553	-759.68736	-110.53117	525.92482	-786.79024	-245.25155	754.20206	-384.00042	-423.37485	784.51006	-453.54627	-242.12835	757.22114	-629.47465	-425.47197	785.42211	-560.65812	-56.00565	1225.17349	-475.77666	-16.17131	1133.93553	-320.45568	-32.24503	1156.80010	-643.35904	21.09019	1087.59235	-453.35607	14.53334	1088.89963	-511.79358	2.99787	1006.03504	-251.35800	-0.79974	789.76669	-276.15520	11.07167	821.91760	-192.65846	182.66903	820.34687	-210.08587	270.68145	844.66530	-238.07461	264.84983	802.86551	-218.14682	-53.68899	1069.75386	-744.66332	-29.65151	819.55364	-752.27872	-23.06935	864.72930	-828.01412	54.22642	874.54548	-834.52113	228.17303	874.60678	-812.65814	226.59134	838.20178	-832.30838	-333.39086	645.37438	-404.15213	-335.84226	654.50245	-610.89680	-309.06385	680.49540	-417.75859	-312.23586	681.87498	-579.76021	
1184	11.83000000	7.58040	400.04515	-340.06407	10.30501	297.29159	-370.11521	-271.77710	120.42937	-439.62756	-361.52669	79.05860	-501.79552	-187.16492	47.90339	-377.37897	-116.39912	69.01510	-430.71259	17.19041	478.07177	-798.06194	-8.23261	410.62231	-828.16058	-247.10736	166.90059	-805.04289	-333.40089	128.78826	-742.75451	-182.10428	71.22523	-878.13692	-105.10049	75.76267	-832.15960	-76.31586	223.44771	-369.07658	-28.35389	342.00872	-325.90916	-126.43473	282.25472	-335.97958	-73.37777	464.90630	-797.49088	-144.72844	364.22488	-807.62752	-197.65825	643.54974	-323.69621	-104.50579	589.46047	-328.54486	-111.73213	527.04650	-299.31449	-252.95773	545.65863	-327.16963	-150.64426	493.10719	-321.16507	-173.80105	676.58260	-721.23951	-50.85772	614.33015	-746.51637	-226.54864	588.25460	-759.63618	-108.47043	524.29616	-786.93024	-245.68813	751.06026	-384.32010	-423.55865	780.69292	-454.32234	-241.82809	753.79853	-629.52066	-425.36515	781.42292	-561.30822	-55.16897	1220.85705	-476.37031	-15.88855	1129.53902	-320.75397	-31.10609	1151.79623	-644.18351	21.40497	1083.03064	-453.82033	15.04123	1084.26896	-512.32126	2.82024	1001.70294	-251.72615	-0.95060	785.42299	-276.45961	10.85253	817.65699	-192.85651	182.41351	816.39152	-210.57251	270.34880	840.89585	-238.67302	264.64307	799.15999	-218.49870	-52.84887	1064.90674	-745.04379	-28.89251	814.86768	-752.43892	-21.96416	859.84644	-827.98802	55.34476	869.56231	-834.55366	229.27874	869.02810	-811.94159	227.64514	832.68529	-831.69411	-333.32230	641.90792	-404.44455	-335.20870	650.77479	-611.20650	-309.10628	677.23707	-418.08416	-311.83870	678.34109	-579.91967	
1185	11.84000000	9.04369	398.72615	-339.98571	11.40972	296.26990	-370.15379	-271.47628	120.69215	-439.73749	-361.39023	79.36567	-501.86183	-187.07474	47.93591	-377.36240	-116.21844	68.83879	-430.74135	19.27925	476.98521	-797.78233	-6.42287	409.89948	-827.66031	-246.40086	167.22142	-804.22526	-332.70752	129.33321	-742.01910	-181.97536	71.57043	-877.74159	-104.84901	75.77614	-831.97593	-75.48211	222.76720	-369.05481	-26.93754	341.20514	-325.68464	-125.69781	281.32584	-335.74989	-71.30096	464.49873	-796.97902	-143.10194	364.07669	-806.77348	-197.53831	641.09830	-323.96144	-104.04953	587.58907	-328.92068	-110.81953	525.12123	-299.73380	-252.29631	543.09143	-327.26932	-149.65239	490.96341	-321.25167	-172.81171	674.43203	-721.03168	-49.48660	613.11178	-746.08434	-224.97633	585.79522	-759.45763	-106.45032	522.67676	-786.85711	-245.88765	748.13195	-384.58456	-423.67296	777.16196	-455.14838	-241.45104	750.65384	-629.80424	-425.23022	777.67831	-562.06349	-54.46712	1217.00785	-477.04553	-15.85819	1125.58660	-321.30632	-30.21058	1147.43805	-644.96170	21.65754	1078.90396	-454.31587	15.47731	1080.11722	-512.73069	2.46625	997.77425	-252.29970	-1.22538	781.53034	-276.88861	10.48165	813.79785	-193.29892	182.03619	812.78493	-211.04811	269.92891	837.36768	-239.16905	264.35674	795.67500	-218.89748	-52.09621	1060.62209	-745.61855	-28.34266	810.56869	-752.75811	-20.90848	855.13029	-827.54251	56.48336	864.90654	-834.67093	230.33505	863.43540	-811.22646	228.64314	827.31011	-831.28618	-333.11879	638.68925	-404.83451	-334.51305	647.31849	-611.61078	-309.02575	674.19412	-418.35541	-311.38323	674.97587	-580.21624	
1186	11.85000000	10.48858	397.56794	-339.95261	12.42907	295.45704	-370.23251	-271.25691	121.06844	-439.66584	-361.22993	79.84598	-501.99742	-186.95939	47.94500	-377.36292	-116.11221	68.69909	-430.78714	21.28116	475.98766	-797.66351	-4.77974	409.07979	-827.06784	-245.67762	167.55586	-803.39193	-332.08599	129.72057	-741.17424	-181.84078	71.92023	-877.45413	-104.61880	75.78524	-831.78149	-74.74676	222.32982	-368.92360	-25.72517	340.64400	-325.57804	-124.53783	280.60086	-336.34418	-69.40406	463.96291	-796.28755	-141.59059	363.99700	-806.14946	-197.21890	638.94195	-324.36862	-103.45408	585.88455	-329.17566	-109.98569	523.57995	-299.59248	-251.54788	540.70773	-327.50550	-148.64048	489.04890	-321.26133	-171.63981	672.66307	-720.92665	-47.88196	611.99441	-745.78300	-223.40238	583.74143	-759.31864	-104.55078	521.18482	-786.53884	-245.98614	745.42915	-385.00202	-423.71870	773.89276	-455.99296	-241.05676	747.63812	-630.31118	-425.05239	774.18795	-562.84697	-53.93816	1213.59359	-477.86348	-16.00493	1122.08100	-322.03173	-29.61847	1143.74836	-645.56341	21.86479	1075.33345	-454.94457	15.84710	1076.42886	-513.14193	2.04202	994.38117	-252.97913	-1.62616	778.07856	-277.22804	10.04336	810.41441	-193.75266	181.55441	809.53408	-211.47333	269.45802	834.13986	-239.60262	263.90949	792.49139	-219.33398	-51.39993	1056.89175	-746.23378	-27.73061	806.81440	-752.88135	-19.95313	850.94972	-827.28049	57.59204	860.56595	-834.83575	231.32397	858.02956	-810.63462	229.53517	822.07755	-830.96232	-332.84934	635.71972	-405.29309	-333.87596	644.05068	-612.08375	-308.88832	671.33022	-418.76971	-310.90968	671.77779	-580.69987	
